cover 
http://shareimage.ro/images/6u5f02cw699dobdcm11.jpg
 
http://www.imdb.com/title/tt1438254/

Genre:Fantasy | Romance | Drama
Language:English
IMDb:http://www.imdb.com/title/tt1438254/
Source:720p BluRay x264-METiS

General
Complete name :Charlie.St.Cloud.2010.720p.BRRip.H264.Feel-Free
Format : MPEG-4
Format profile : Base Media
Codec ID : isom
File size : 1.26 GiB
Duration : 1h 39mn
Overall bit rate : 1 808 Kbps
Video #1
Codec ID : avc1
Codec ID/Info : Advanced Video Coding
Duration : 1h 39mn
Bit rate mode : Variable
Bit rate : 1 484 Kbps
Width : 1 280 pixels
Height : 536 pixels
Display aspect ratio : 2.35:1
Frame rate mode : Constant
Frame rate : 23.976 fps
Resolution : 24 bits
Colorimetry : 4:2:0
Scan type : Progressive
Bits/(Pixel*Frame) : 0.090
Stream size : 1.03 GiB (82%)
Audio #2
ID : 2
Format : AAC
Format/Info : Advanced Audio Codec
Format version : Version 4
Format profile : LC
Format settings, SBR : No
Codec ID : 40
Duration : 1h 39mn
Bit rate mode : Variable
Bit rate : 320 Kbps
Channel(s) : 6 channels
Channel positions : Front: L C R, Rear: L R, LFE
Sampling rate : 48.0 KHz
Resolution : 16 bits
Stream size : 227 MiB (18%)

Plot:
Charlie St. Cloud is a young man overcome by grief at the death of his younger brother. So much so that he takes a job as caretaker of the cemetery in which his brother is buried. Charlie has a special lasting bond with his brother though, as he can see him. Charlie meets up with his brother (Sam) each night to play catch and talk. Then, a girl comes into Charlie's life and he must choose between keeping a promise he made to Sam, or going after the girl he loves


screens 
http://img217.imageshack.us/img217/3608/charliestcloud2010720pb.jpg 
http://img688.imageshack.us/img688/3608/charliestcloud2010720pb.jpg 
http://img179.imageshack.us/img179/3608/charliestcloud2010720pb.jpg 
http://img42.imageshack.us/img42/3608/charliestcloud2010720pb.jpg 
http://img576.imageshack.us/img576/3608/charliestcloud2010720pb.jpg